<?xml version="1.0" encoding="UTF-8" standalone="no"?>
<svg width="38px" height="50px" viewBox="0 0 38 50" version="1.1" xmlns="http://www.w3.org/2000/svg" xmlns:xlink="http://www.w3.org/1999/xlink">
    <!-- Generator: Sketch 43.2 (39069) - http://www.bohemiancoding.com/sketch -->
    <title>mechanic-contact</title>
    <desc>Created with Sketch.</desc>
    <defs></defs>
    <g id="Page-1" stroke="none" stroke-width="1" fill="none" fill-rule="evenodd">
        <g id="desktop5" transform="translate(-451.000000, -857.000000)" fill="#FFFFFF">
            <g id="contact" transform="translate(0.000000, 838.000000)">
                <g id="mechanic-contact" transform="translate(451.000000, 19.000000)">
                    <g transform="translate(19.000000, 25.000000) scale(-1, -1) translate(-19.000000, -25.000000) ">
                        <path d="M27.6948379,0 C27.6948379,0 37.9138463,2.24226804 37.0622623,8.59536082 C36.2106782,14.9484536 26.4174618,14.9484536 26.4174618,14.9484536 C26.4174618,14.9484536 23.4369177,14.5747423 22.1595417,13.8273196 C20.8821656,13.0798969 27.6948379,0 27.6948379,0 Z" id="Path-2"></path>
                        <path d="M10.272974,35 C10.272974,35 12.6335341,36.4933976 13.4203875,37.6134458 C14.2072409,38.733494 16.5678011,43.5870362 13.8138142,47.6938797 C11.0598274,51.8007231 3.5847202,49.1872773 2.79786681,48.4405785 C2.01101343,47.6938797 -0.349546727,45.8271327 0.0438799657,45.4537833 C0.437306658,45.0804338 10.272974,35 10.272974,35 Z" id="Path-3"></path>
                        <path d="M28.7809077,16.6735395 C28.7809077,16.6735395 34.8607199,15.8946163 36.8873239,12 C33.6447574,27.5784651 19.0532081,44.7147766 15,47.0515464 C16.2159624,44.7147766 17.0266041,43.1569301 15,37.7044674 C28.3755869,32.6414662 28.7809077,16.6735395 28.7809077,16.6735395 Z" id="Path-4"></path>
                    </g>
                </g>
            </g>
        </g>
    </g>
</svg>