<?xml version="1.0" encoding="UTF-8" standalone="no"?>
<svg width="49px" height="49px" viewBox="0 0 49 49" version="1.1" xmlns="http://www.w3.org/2000/svg" xmlns:xlink="http://www.w3.org/1999/xlink">
    <!-- Generator: Sketch 43.2 (39069) - http://www.bohemiancoding.com/sketch -->
    <title>mechanic-hours</title>
    <desc>Created with Sketch.</desc>
    <defs></defs>
    <g id="Page-1" stroke="none" stroke-width="1" fill="none" fill-rule="evenodd">
        <g id="desktop5" transform="translate(-1184.000000, -858.000000)" fill-rule="nonzero" fill="#FFFFFF">
            <g id="contact" transform="translate(0.000000, 838.000000)">
                <g id="noun_823239_cc" transform="translate(1029.000000, 20.000000)">
                    <g id="mechanic-hours" transform="translate(155.000000, 0.000000)">
                        <path d="M24.5,0 C10.9877758,0 0,10.9878003 0,24.5000158 C0,38.0120732 10.9877758,49 24.5,49 C38.0122242,49 49,38.0120732 49,24.5000158 C49,10.9878003 38.0122242,0 24.5,0 Z M24.5,3.16128828 C36.3037048,3.16128828 45.8387097,12.6963028 45.8387097,24.5000158 C45.8387097,36.303555 36.3037048,45.8387117 24.5,45.8387117 C12.6962952,45.8387117 3.16129032,36.303555 3.16129032,24.5000158 C3.16129032,12.6963028 12.6962952,3.16128828 24.5,3.16128828 Z M24.5,7.90322071 C23.6270097,7.90322071 22.9193548,8.61087509 22.9193548,9.48386485 L22.9193548,24.5000158 C22.9193548,24.9365107 23.1024726,25.3253491 23.3885694,25.6113667 L32.8724403,35.1199686 C33.4898403,35.7372892 34.5026387,35.7372102 35.1199597,35.1199686 C35.7372016,34.5026481 35.7372016,33.4896923 35.1199597,32.8724507 L26.0806452,23.8578791 L26.0806452,9.48386485 C26.0806452,8.61087509 25.3729903,7.90322071 24.5,7.90322071 Z"></path>
                    </g>
                </g>
            </g>
        </g>
    </g>
</svg>