<?xml version="1.0" encoding="UTF-8" standalone="no"?>
<svg width="101px" height="101px" viewBox="0 0 101 101" version="1.1" xmlns="http://www.w3.org/2000/svg" xmlns:xlink="http://www.w3.org/1999/xlink">
    <!-- Generator: Sketch 43.2 (39069) - http://www.bohemiancoding.com/sketch -->
    <title>bmw-service</title>
    <desc>Created with Sketch.</desc>
    <defs></defs>
    <g id="Page-1" stroke="none" stroke-width="1" fill="none" fill-rule="evenodd">
        <g id="desktop5" transform="translate(-416.000000, -1604.000000)">
            <g id="brands" transform="translate(0.000000, 1590.000000)">
                <g id="bmw-service" transform="translate(416.085755, 14.000000)">
                    <path d="M100,51.0004267 C100,22.8336108 77.6151809,0 50.0010459,0 C22.3873292,0 0,22.8336108 0,51.0004267 C0,79.1672426 22.3873292,102 50.0010459,102 C77.6151809,102 100,79.1672426 100,51.0004267" id="Fill-1"></path>
                    <path d="M100,51.0004267 C100,22.8336108 77.6151809,0 50.0010459,0 C22.3873292,0 0,22.8336108 0,51.0004267 C0,79.1672426 22.3873292,102 50.0010459,102 C77.6151809,102 100,79.1672426 100,51.0004267 Z" id="Stroke-3"></path>
                    <path d="M99,50.5004244 C99,23.1613223 77.0619714,1 50.0010503,1 C22.9388689,1 1,23.1613223 1,50.5004244 C1,77.8382533 22.9388689,100 50.0010503,100 C77.0619714,100 99,77.8382533 99,50.5004244" id="Fill-5" stroke="#FFFFFF" stroke-width="2"></path>
                    <path d="M25.2072395,25.2629122 C24.8406611,25.7277549 24.4753496,26.1921687 24.1096158,26.6565826 C23.104059,27.932327 22.0959683,29.2085002 21.0899892,30.4842446 C21.085766,30.4893905 21.0587371,30.5327015 21.0515576,30.5271268 C21.0000339,30.4851022 20.9480879,30.4435065 20.8961419,30.4010532 C20.6220527,30.1780659 20.3496528,29.9563652 20.0755636,29.7338067 C19.6008699,29.3478672 19.1261761,28.9614989 18.6519047,28.5768459 C19.5645499,27.4190275 20.4767727,26.2616378 21.3894179,25.1038194 C21.8341266,24.5399189 22.2784129,23.9755896 22.7226992,23.4125468 C23.0411325,23.008168 23.442764,22.7217151 23.9715154,22.7045623 C24.6058481,22.68355 25.1582498,23.0596266 25.4276934,23.6299594 C25.6532151,24.1835681 25.5771966,24.7937813 25.2072395,25.2629122 M16.648393,26.9477525 C16.0698072,26.4769063 15.4899544,26.0056313 14.9113686,25.5356428 C14.6900701,25.3559665 14.4700386,25.1758614 14.2483178,24.996614 C14.2428275,24.9910393 14.4751065,24.7011559 14.4919995,24.6822877 C15.5706186,23.3139178 16.6500823,21.9442615 17.7287014,20.5763204 C18.0129264,20.2152526 18.2680109,19.8305996 18.7051177,19.6470639 C19.3018635,19.3974897 20.0025013,19.5574402 20.4358072,20.0407222 C20.7850703,20.4326652 20.9003651,20.9652617 20.7880266,21.4751306 C20.6592173,21.9283951 20.3433179,22.2620183 20.0590929,22.6217997 C19.4914876,23.3417912 18.9230376,24.0630692 18.3554323,24.7830608 C17.7865599,25.5051964 17.2176876,26.2273321 16.648393,26.9477525 M28.9790276,22.8520769 C28.7906705,21.5162975 27.9979657,20.3940712 26.7820909,19.8323149 C25.5624152,19.2697009 24.1446688,19.4815388 23.0694284,20.2542754 C22.9815847,20.3181698 22.9004982,20.3940712 22.8177224,20.4622539 C22.9955214,19.843893 23.0504237,19.2208152 22.8983866,18.5874456 C22.750995,17.9703713 22.4312947,17.4004673 21.9832074,16.9566369 C21.0709846,16.0531097 19.6874466,15.7559363 18.491421,16.2100584 C17.9288836,16.4231828 17.4275834,16.7898253 17.0517138,17.2666749 C16.8384394,17.5368326 16.6247428,17.8082767 16.4114685,18.0801496 C15.2944178,19.4956899 14.1794787,20.9103725 13.0641174,22.3259127 C12.1050164,23.5407645 11.1471824,24.7556162 10.1893484,25.9704679 C10.1259996,26.0506576 10.0639177,26.1312761 10.0001466,26.2114657 C9.99507868,26.2161827 10.1230433,26.3148117 10.1319121,26.3216729 C10.5039808,26.6244209 10.8756271,26.9258826 11.2468512,27.2286307 C12.6527724,28.3714403 14.059116,29.51425 15.4654596,30.6579174 C16.8557548,31.7895777 18.2485839,32.921238 19.6418354,34.053756 C19.9970111,34.3414953 20.3504974,34.6296635 20.7069401,34.9182604 C20.7212991,34.9311251 20.8040749,35.0151741 20.8188563,34.9975925 C20.8889623,34.9071111 20.9594907,34.8179162 21.0291744,34.7295789 C21.9848967,33.5164425 22.9406191,32.3050213 23.8959192,31.0936002 C25.0412656,29.6416101 26.1861898,28.18962 27.3315363,26.737201 C27.9227918,25.9876208 28.5761292,25.2809227 28.8569756,24.3409457 C29.0009886,23.8572349 29.0246388,23.3516541 28.9790276,22.8520769" id="Fill-7" fill="#FFFFFF"></path>
                    <path d="M81,51 C81,33.8784707 67.1204439,20 50.0004253,20 C32.8795561,20 19,33.8784707 19,51 C19,68.1206788 32.8795561,82 50.0004253,82 C67.1204439,82 81,68.1206788 81,51" id="Fill-9" stroke="#FFFFFF" stroke-width="2"></path>
                    <path d="M50,22 C34.1685983,22.4111068 21.4098555,35.1692461 21,51 L50,51 L50,22 Z" id="Fill-11" fill="#FFFFFF"></path>
                    <path d="M50,80 C65.8321244,79.5880789 78.5880848,66.831096 79,51 L50,51 L50,80 Z" id="Fill-13" fill="#FFFFFF"></path>
                    <polygon id="Fill-15" fill="#FFFFFF" points="82.4152784 17.3647983 79.9625584 15 72 25.8576218 74.4519125 28.2207438 83.1844029 24.0640126 77.3652996 31.9977999 79.0525287 35 91 29.3086433 89.3143859 26.3077004 82.418912 29.5910948 87.3203145 22.9090623 85.1748406 20.1272918 77.8207182 23.6290204"></polygon>
                    <polygon id="Fill-17" fill="#FFFFFF" points="45.9504415 7.8215703 49.2118771 17.4647109 51.7881229 17.4647109 55.0495585 7.8215703 55.3934255 17.4647109 59 18 58.4844116 3.53661189 53.8483564 3 50.500424 13.1788706 47.1507956 3 42.5143164 3.53661189 42 18 45.6069986 17.4647109"></polygon>
                </g>
            </g>
        </g>
    </g>
</svg>