<?xml version="1.0" encoding="UTF-8" standalone="no"?>
<svg width="231px" height="50px" viewBox="0 0 231 50" version="1.1" xmlns="http://www.w3.org/2000/svg" xmlns:xlink="http://www.w3.org/1999/xlink">
    <!-- Generator: Sketch 43.2 (39069) - http://www.bohemiancoding.com/sketch -->
    <title>ferrari-service</title>
    <desc>Created with Sketch.</desc>
    <defs>
        <polygon id="path-1" points="0.0224329159 49.7041353 0.0224329159 0.313909774 208.946161 0.313909774 208.946161 49.7041353 0.0224329159 49.7041353"></polygon>
    </defs>
    <g id="Page-1" stroke="none" stroke-width="1" fill="none" fill-rule="evenodd">
        <g id="desktop5" transform="translate(-788.000000, -1630.000000)">
            <g id="brands" transform="translate(0.000000, 1590.000000)">
                <g id="ferrari-service" transform="translate(788.253009, 40.000000)">
                    <g id="Group-3">
                        <mask id="mask-2" fill="white">
                            <use xlink:href="#path-1"></use>
                        </mask>
                        <g id="Clip-2"></g>
                        <path d="M0,49.7041353 L0,44.8721805 L2.66951699,44.8721805 C4.00427549,44.8721805 6.67379249,44.6037594 6.67379249,41.3827068 L6.67379249,12.3928571 C6.67379249,10.6481203 6.54031664,6.48759398 3.20342039,6.48759398 L0.13347585,6.48759398 L3.60384794,0.313909774 L208.946161,0.313909774 L208.946161,6.48759398 L20.0217513,6.48759398 C18.2861914,6.48759398 16.0174758,6.89022556 16.0174758,10.3796992 L16.0174758,19.506015 C16.4179034,20.5796992 18.0196136,20.9823308 18.8200948,20.9823308 C19.6209499,20.9823308 22.4243166,20.8481203 22.4243166,16.4191729 L26.4285921,16.4191729 L26.4285921,31.3169173 L22.4243166,31.3169173 C22.4243166,29.9744361 20.9489785,27.7259398 18.9539445,27.5590226 C17.3522343,27.424812 16.0174758,27.9616541 16.0174758,30.1090226 L16.0174758,41.3827068 C16.0174758,42.5906015 17.4857102,44.8721805 20.9560823,44.8721805 L23.3586476,44.8721805 L23.3586476,49.7041353 L0,49.7041353" id="Fill-1" fill="#FFFFFF" mask="url(#mask-2)"></path>
                    </g>
                    <path d="M118.026875,13.0647267 C118.026875,14.1294535 119.37821,15.1941802 120.18901,15.4603619 C121.134944,14.7949077 126.13526,12 130.053751,12 C133.972999,12 136,13.9963626 136,17.057452 L136,31.6974448 L126.540281,31.6974448 L126.540281,20.3847231 C126.540281,18.9207238 126.13526,17.8559971 124.783547,17.7229063 C123.432212,17.5898154 119.918743,20.3847231 118.972809,21.7160044 L118.972809,41.9458125 C118.972809,43.8090843 120.864677,45.1399927 122.486278,45.1399927 L122.486278,49 L106,49 L106,45.0072747 C107.621601,45.0072747 109.378336,44.4745385 109.513469,42.0789034 L109.513469,19.5861781 C109.513469,18.9207238 108.432402,17.057452 106,17.057452 L106,13.0647267 L118.026875,13.0647267" id="Fill-4" fill="#FFFFFF"></path>
                    <path d="M230,13 L214,13 L214,16.999917 C216.360288,16.999917 217.409469,18.8665449 217.409469,19.5331978 L217.409469,42.066437 C217.278689,44.4663873 215.57377,45.000083 214,45.000083 L214,49 L230,49 L230,45.1330401 C228.42623,45.1330401 226.590164,43.7997344 226.590164,41.9331065 L226.590164,19.7998589 C226.590164,18.1998921 228.295082,16.999917 230,16.999917 L230,13" id="Fill-5" fill="#FFFFFF"></path>
                    <path d="M82.027102,13.0647267 C82.027102,14.1294535 83.3784193,15.1941802 84.1892096,15.4603619 C85.1351317,14.7949077 90.1353841,12 94.0538256,12 C97.9726456,12 100,13.9963626 100,17.057452 L100,31.6974448 L90.5404007,31.6974448 L90.5404007,20.3847231 C90.5404007,18.9207238 90.1353841,17.8559971 88.7836883,17.7229063 C87.4323711,17.5898154 83.9189462,20.3847231 82.9730241,21.7160044 L82.9730241,41.9458125 C82.9730241,43.8090843 84.8648683,45.1399927 86.486449,45.1399927 L86.486449,49 L70,49 L70,45.0072747 C71.6219592,45.0072747 73.3782931,44.4745385 73.5138034,42.0789034 L73.5138034,19.5861781 C73.5138034,18.9207238 72.4323711,17.057452 70,17.057452 L70,13.0647267 L82.027102,13.0647267" id="Fill-6" fill="#FFFFFF"></path>
                    <g id="Group-10" transform="translate(34.000000, 12.000000)" fill="#FFFFFF">
                        <path d="M156.136996,1.4235098 C156.136996,2.4875098 157.47,3.5515098 158.269803,3.8175098 C159.202906,3.1525098 164.135021,0.359509804 168.000734,0.359509804 C171.866446,0.359509804 173.866326,2.3545098 173.866326,5.4135098 L173.866326,20.0435098 L164.534923,20.0435098 L164.534923,8.7385098 C164.534923,7.2755098 164.135021,6.2115098 162.802017,6.0785098 C161.469013,5.9455098 158.003202,8.7385098 157.070099,10.0688824 L157.070099,30.2848824 C157.070099,32.1468824 158.936305,33.4768824 160.53591,33.4768824 L160.53591,37.3342549 L144.272884,37.3342549 L144.272884,33.3442549 C145.872489,33.3442549 147.605768,32.8118824 147.738695,30.4178824 L147.738695,7.9405098 C147.738695,7.2755098 146.672665,5.4135098 144.272884,5.4135098 L144.272884,1.4235098 L156.136996,1.4235098" id="Fill-7"></path>
                        <path d="M9.37135622,9.6695098 C9.37135622,7.5415098 10.0378584,4.3495098 14.7033734,4.3495098 C19.3688884,4.3495098 19.7687897,7.8075098 19.7687897,9.6695098 L19.7687897,14.4578824 C19.7687897,15.2558824 19.1022876,16.0535098 18.1691845,16.0535098 L10.9709614,16.0535098 C10.1711588,16.0535098 9.37135622,15.3888824 9.37135622,14.5908824 L9.37135622,9.6695098 Z M29.0998197,26.1618824 L19.7687897,26.1618824 L19.7687897,29.7528824 C19.7687897,31.2158824 19.5021888,34.2748824 15.1032747,34.2748824 C10.7039871,34.2748824 9.37135622,31.3488824 9.37135622,29.2208824 L9.37135622,21.6398824 C9.37135622,20.9748824 9.90418455,20.0435098 10.8376609,20.0435098 L29.0998197,20.0435098 L29.0998197,10.3345098 C29.0998197,5.9455098 28.1670901,4.6155098 26.3005107,2.7535098 C24.4343047,0.891509804 17.9025837,0.359509804 14.9699742,0.359509804 C7.50515021,0.359509804 5.1053691,1.4235098 2.97256223,3.1525098 C0.839755365,4.8815098 0.0399527897,8.4725098 0.0399527897,11.1325098 L0.0399527897,26.1618824 C0.0399527897,30.1518824 0.839755365,32.9448824 3.37246352,35.4718824 C5.90517167,37.9988824 13.63697,37.9988824 15.2365751,37.9988824 C16.8361803,37.9988824 22.1681974,38.1318824 26.0339099,35.3388824 C29.8996223,32.5458824 29.0998197,26.1618824 29.0998197,26.1618824 L29.0998197,26.1618824 Z" id="Fill-9"></path>
                    </g>
                    <path d="M161.305932,45.1659866 C161.305932,45.5018439 160.776642,45.9719689 160.380323,45.9719689 L155.818207,45.9719689 C152.57876,45.9719689 151.652781,43.151971 151.652781,41.4064909 L151.652781,36.2369962 C151.652781,31.2021454 156.810116,31.3364131 158.859494,31.3364131 C160.909242,31.3364131 161.305932,33.0818933 161.305932,34.2229807 L161.305932,45.1659866 Z M170.562023,42.8834356 L170.562023,22.742904 C170.562023,19.6547468 170.429793,16.4323219 167.256276,14.149771 C164.082759,11.86722 158.925424,12.0014877 156.941976,12.0014877 C154.958528,12.0014877 148.347034,12.0014877 145.305747,15.492448 C142.26446,18.9834083 142.793379,22.3401009 142.793379,23.6827779 L151.454621,23.6827779 C151.454621,23.6827779 152.04947,19.117676 153.239539,17.9092667 C154.437016,16.6933354 157.603496,15.3581803 160.049563,17.5064636 C160.951097,18.2985302 161.305932,19.3192656 161.305932,20.460353 L161.305932,26.2338643 C161.305932,26.7709351 160.776642,27.5765413 160.115863,27.5765413 C160.115863,27.5765413 148.082574,27.8454528 145.966896,29.4566653 C143.851218,31.0678777 142,32.1420193 142,38.0497983 C142,43.9575772 143.454529,46.2401282 145.173517,47.4485375 C146.892505,48.6569469 147.685885,50 155.487818,50 L174,50 L174,46.1058605 C172.413242,46.1058605 170.562023,44.7631835 170.562023,42.8834356 L170.562023,42.8834356 Z" id="Fill-11" fill="#FFFFFF"></path>
                    <path d="M221.500188,6 C226.194299,6 230,4.65653173 230,2.99982323 C230,1.34311473 226.194299,0 221.500188,0 C216.805701,0 213,1.34311473 213,2.99982323 C213,4.65653173 216.805701,6 221.500188,6" id="Fill-12" fill="#FFFFFF"></path>
                </g>
            </g>
        </g>
    </g>
</svg>