<?xml version="1.0" encoding="UTF-8" standalone="no"?>
<svg width="43px" height="29px" viewBox="0 0 43 29" version="1.1" xmlns="http://www.w3.org/2000/svg" xmlns:xlink="http://www.w3.org/1999/xlink">
    <!-- Generator: Sketch 43.2 (39069) - http://www.bohemiancoding.com/sketch -->
    <title>google-plus</title>
    <desc>Created with Sketch.</desc>
    <defs></defs>
    <g id="Page-1" stroke="none" stroke-width="1" fill="none" fill-rule="evenodd">
        <g id="desktop5" transform="translate(-507.000000, -55.000000)" fill="#FFFFFF">
            <g id="nav">
                <g id="social-media" transform="translate(498.000000, 39.000000)">
                    <g id="Google-Plus">
                        <path d="M32.4067964,19.9954544 L28.4878572,23.9143936 C28.4878572,23.9143936 27.6480845,21.954924 22.8893726,21.954924 C18.1306607,21.954924 14.77157,25.8738632 14.77157,30.0727267 C14.77157,34.2715901 17.0109638,39.030302 23.4492211,39.030302 C29.8874784,39.030302 31.0071753,33.1518932 31.0071753,33.1518932 L23.1692968,33.1518932 L23.1692968,28.3931813 C23.1692968,28.3931813 29.8874784,28.3931813 36.3257357,28.3931813 C37.4454326,40.9897716 28.7677814,44.6287866 22.8893726,44.3488624 C17.0109638,44.0689382 9.17308536,39.3102263 9.73293382,29.7928024 C10.2927823,20.2753786 17.5708123,16.6363636 23.1692968,16.6363636 C28.7677814,16.6363636 32.4067964,19.9954544 32.4067964,19.9954544 Z M43.6120309,28.6731055 L43.6120309,24.7541663 L47.5359624,24.7541663 L47.5359624,28.6731055 L51.4549016,28.6731055 L51.4549016,32.3121141 L47.5359624,32.3121141 L47.5359624,36.2310597 L43.6120309,36.2310597 L43.6120309,32.3121141 L39.6980839,32.3121141 L39.6980839,28.6731055 L43.6120309,28.6731055 Z" id="google-plus"></path>
                    </g>
                </g>
            </g>
        </g>
    </g>
</svg>