<?xml version="1.0" encoding="UTF-8" standalone="no"?>
<svg width="39px" height="35px" viewBox="0 0 39 35" version="1.1" xmlns="http://www.w3.org/2000/svg" xmlns:xlink="http://www.w3.org/1999/xlink">
    <!-- Generator: Sketch 43.2 (39069) - http://www.bohemiancoding.com/sketch -->
    <title>instagram</title>
    <desc>Created with Sketch.</desc>
    <defs></defs>
    <g id="Page-1" stroke="none" stroke-width="1" fill="none" fill-rule="evenodd">
        <g id="desktop5" transform="translate(-859.000000, -1956.000000)" fill="#333333">
            <g id="facebook-instagram" transform="translate(0.000000, 1725.000000)">
                <g id="Group-11" transform="translate(859.000000, 231.000000)">
                    <path d="M26.8617343,7.40129172 L26.8617343,9.31327258 L26.8617343,9.36916125 C26.81612,10.1780762 27.5720135,10.7869686 28.425652,10.7752026 C29.855985,10.7575535 31.2895762,10.7575535 32.7231674,10.7752026 C33.6159038,10.7840271 34.3066341,10.1604272 34.2968596,9.37210276 C34.2805688,8.06018974 34.2903433,6.74827672 34.2903433,5.4363637 C34.2870851,5.29222976 34.2707943,5.1422128 34.2284382,5.00690339 C34.0362066,4.41271857 33.4725446,4.04797145 32.7427164,4.04797145 C31.3221578,4.04502994 29.8983411,4.06267899 28.4745244,4.04208843 C27.5915625,4.02738089 26.8193782,4.60979967 26.8552179,5.48636936 C26.8845414,6.12467681 26.8617343,6.76298427 26.8617343,7.40129172 L26.8617343,7.40129172 Z M11.9523857,17.4994921 C11.9491275,21.208735 15.2691944,24.2208402 19.367962,24.2237817 C23.5058276,24.2267233 26.8128618,21.2440331 26.8389271,17.5200827 C26.8649924,13.9726228 23.7110918,10.7869686 19.40706,10.7810856 C15.1877404,10.772261 11.9458694,13.857904 11.9523857,17.4994921 L11.9523857,17.4994921 Z M4.49119509,14.8256605 L4.49119509,15.181583 L4.49119509,29.3920131 C4.49119509,29.518498 4.49445325,29.6508659 4.51074406,29.7744092 C4.59545626,30.356828 5.01250098,30.7862883 5.64132621,30.9157147 C5.80749247,30.9510128 5.98343321,30.9480713 6.15285762,30.9480713 C14.9857344,30.9510128 23.8153529,30.9510128 32.6482297,30.9510128 C32.7166511,30.9510128 32.7883307,30.9480713 32.8600102,30.9510128 C33.1271795,30.9539544 33.3747998,30.8804166 33.6028711,30.7509902 C34.0850791,30.4686054 34.2936014,30.0626771 34.2903433,29.5479131 C34.2870851,28.3919 34.2903433,27.2329455 34.2903433,26.0769324 L34.2903433,15.169817 C34.2903433,15.0550982 34.2838269,14.9433208 34.2805688,14.834485 L30.9572437,14.834485 C32.7883307,21.3411029 27.7121145,27.7035869 20.3551851,28.2389415 C17.0546671,28.4801453 14.0832235,27.6359322 11.6037624,25.6445306 C7.98720274,22.7383197 6.8207808,19.076141 7.811262,14.8256605 L4.49119509,14.8256605 Z M19.4005437,34.9985292 C14.4383632,34.9985292 9.46966637,35.0014708 4.50422773,34.9955877 C2.70898056,34.9926462 1.39268318,34.2337369 0.519495804,32.8335786 C0.174130649,32.2835164 0.0307715285,31.6805071 0.00144807193,31.0539657 C-0.00181008991,30.9892525 0.00144807193,30.9245393 0.00144807193,30.8627676 L0.00144807193,4.1303337 C-0.00181008991,3.086098 0.356587712,2.15658116 1.12551391,1.37708127 C2.00195944,0.48580404 3.10973447,0.00633807105 4.43254817,0.00339656204 C14.4025234,-0.00248645598 24.3724986,0.000455053027 34.3424738,0.00339656204 C36.7502554,0.00339656204 38.7377342,1.780068 38.7800903,3.95384316 C38.7833484,4.02738089 38.7800903,4.0979771 38.7800903,4.17151483 C38.7833484,13.0666381 38.7800903,21.9558783 38.7833484,30.84806 C38.7833484,31.6246184 38.613924,32.3541126 38.1610395,33.0130107 C37.2780777,34.2896256 36.0106527,34.9897047 34.3294412,34.9926462 C29.3509699,35.0044123 24.3757568,34.9985292 19.4005437,34.9985292 L19.4005437,34.9985292 Z" id="instagram"></path>
                </g>
            </g>
        </g>
    </g>
</svg>