<?xml version="1.0" encoding="UTF-8" standalone="no"?>
<svg width="49px" height="51px" viewBox="0 0 49 51" version="1.1" xmlns="http://www.w3.org/2000/svg" xmlns:xlink="http://www.w3.org/1999/xlink">
    <!-- Generator: Sketch 43.2 (39069) - http://www.bohemiancoding.com/sketch -->
    <title>vehicle-repair</title>
    <desc>Created with Sketch.</desc>
    <defs></defs>
    <g id="Page-1" stroke="none" stroke-width="1" fill="none" fill-rule="evenodd">
        <g id="desktop5" transform="translate(-445.000000, -2299.000000)" fill-rule="nonzero" fill="#FFFFFF">
            <g id="service" transform="translate(0.000000, 2285.000000)">
                <g id="vehicle-repair" transform="translate(445.000000, 14.000000)">
                    <g id="Layer_1">
                        <path d="M47.435655,4.54298169 L44.4797059,1.54434621 C42.5519883,-0.411209341 39.3037687,-0.524952031 37.2386589,1.29093491 L32.043602,5.85916103 C31.9771157,5.91764056 31.9200451,5.98645148 31.8746961,6.0629622 L26.8176079,14.6083813 L23.5705412,15.7063345 C23.2961412,15.799122 23.0887079,16.0294339 23.0223177,16.3149115 C22.9559275,16.6003891 23.0399,16.9003891 23.244355,17.107894 L32.0936589,26.084892 C32.2519961,26.2454183 32.465002,26.3327478 32.6836765,26.3327478 C32.7475687,26.3327478 32.8118451,26.3253404 32.875353,26.3101357 C33.1567667,26.2427868 33.3838,26.0323579 33.4752667,25.7539953 L34.5578785,22.4589661 L43.1054961,17.2230987 C43.1807255,17.1768998 43.2483648,17.1191026 43.3058197,17.0514612 L47.7023687,11.8829427 C49.4824138,9.79054505 49.362604,6.49785499 47.435655,4.54298169 Z M46.4391295,10.7769973 L42.1293393,15.843469 L33.4323197,21.1708569 C33.2625491,21.274853 33.1348608,21.4368413 33.0721216,21.6278745 L32.319155,23.9194924 L30.3250471,21.8965879 C30.3246628,21.8961981 30.3243746,21.8957107 30.3239902,21.8953209 L27.3740942,18.9030207 C27.3738059,18.9027283 27.3734216,18.9025333 27.3731334,18.902241 L25.3788334,16.8791415 L27.6378295,16.1153014 C27.8267197,16.0513638 27.9868824,15.9211493 28.089302,15.7480499 L33.2369922,7.04990177 L38.3316471,2.56997974 C39.7490922,1.32339105 41.9777275,1.40019417 43.2996706,2.74142224 L46.2557157,5.74005772 C47.5783314,7.08157818 47.6605746,9.34122731 46.4391295,10.7769973 Z" id="Shape"></path>
                        <path d="M44.963216,34.4462155 C42.5136003,31.9613228 38.9082571,31.0975801 35.6416865,32.1718491 L17.9102199,14.1843247 C18.9691003,10.870582 18.1176532,7.21307714 15.6682297,4.72808688 C13.087563,2.11034809 9.22415321,1.29143971 5.82547478,2.64270677 C5.5634689,2.7468978 5.37073556,2.97808688 5.31318458,3.25761905 C5.2556336,3.53705374 5.34085517,3.82720969 5.53992968,4.02915901 L10.8473983,9.4131746 L7.30758066,13.0040128 L2.00020811,7.61989975 C1.80103752,7.4180479 1.51539635,7.33179059 1.23965125,7.38988026 C0.964098308,7.44826232 0.73610419,7.64368143 0.633492425,7.90956836 C-0.69834679,11.3571317 0.108615955,15.27643 2.68918654,17.8944612 C5.13880223,20.3793539 8.74414537,21.2432916 12.010716,20.1688276 L18.6408963,26.8947536 L10.3842042,35.2708744 L5.13274929,38.2494319 C4.98671007,38.3322779 4.8685336,38.457814 4.7936885,38.6096658 L2.43390615,43.3973851 C2.27326301,43.7232136 2.33619439,44.1167808 2.59012968,44.3744806 L5.5398336,47.3668783 C5.69999635,47.5293539 5.9135787,47.6147341 6.13004341,47.6147341 C6.25677086,47.6147341 6.38445909,47.5854943 6.50301988,47.5253578 L11.2225846,45.1314982 C11.3722748,45.0555723 11.4960238,44.9356892 11.5776905,44.7875411 L14.5138473,39.4601532 L22.7707316,31.0843247 L29.7422787,38.1565469 C28.6833022,41.4702896 29.5348454,45.1277945 31.984365,47.6127847 C33.7390454,49.3927068 36.0865297,50.3408549 38.4779218,50.3408549 C39.6035767,50.3407574 40.7392238,50.130621 41.8270238,49.6982623 C42.0890297,49.5940713 42.281763,49.3628822 42.339314,49.08335 C42.396865,48.8039153 42.3116434,48.5137594 42.1125689,48.3118101 L36.8051003,42.927697 L40.3448218,39.3369563 L45.6521944,44.7209719 C45.8512689,44.9229212 46.1371022,45.0095684 46.4127512,44.9509914 C46.6883042,44.8926093 46.9162983,44.6971902 47.0189101,44.4313033 C48.3508454,40.983545 47.5438826,37.0642467 44.963216,34.4462155 Z M13.2519532,38.3461181 C13.1976689,38.4011863 13.151263,38.4635645 13.1137924,38.5315957 L10.2465238,43.7339348 L6.29462576,45.7384183 L4.19531203,43.6087886 L6.17116497,39.5997243 L11.2993512,36.6911473 C11.366414,36.6531356 11.4279042,36.6060596 11.4821885,36.5509914 L19.8207395,28.091927 L21.5906003,29.8873461 L13.2519532,38.3461181 Z M45.8398356,42.5171707 L40.9348395,37.5413422 C40.6089414,37.2109329 40.0807983,37.2109329 39.7549003,37.5413422 L35.0353356,42.3290615 C34.8789199,42.4878335 34.7910081,42.7030382 34.7910081,42.9275996 C34.7910081,43.152161 34.8789199,43.3672682 35.0353356,43.5261376 L39.9404277,48.5020635 C37.5082983,48.9923169 34.9577042,48.2351044 33.1643042,46.4158062 C31.0527885,44.2737984 30.3924414,41.0666834 31.4822591,38.2455333 C31.6032218,37.9322779 31.529914,37.5761376 31.2954826,37.3382233 L12.8173905,18.593389 C12.6579003,18.4316931 12.4445101,18.3455333 12.2271807,18.3455333 C12.1249532,18.3455333 12.021765,18.3646366 11.9229963,18.4039153 C9.14210223,19.5095684 5.98064145,18.8394904 3.86902968,16.6976775 C2.0755336,14.8781843 1.32900419,12.29066 1.81256694,9.82360345 L6.71756301,14.7995294 C7.04346105,15.1300362 7.57160419,15.1298413 7.89750223,14.7995294 L12.6170669,10.0118101 C12.9428689,9.68120579 12.9428689,9.14543581 12.6170669,8.81483152 L7.71207086,3.8389056 C10.1442003,3.34767753 12.6946022,4.10557226 14.4881944,5.92516291 C16.5997101,8.0671707 17.2600571,11.2742857 16.1702395,14.0954358 C16.0492767,14.4086912 16.1225846,14.7648315 16.357016,15.0027458 L34.834916,33.7473851 C35.0695395,33.9852019 35.4208022,34.0595684 35.7293101,33.9368588 C38.5103963,32.8315957 41.671665,33.5011863 43.7832767,35.6430966 C45.576965,37.4625898 46.3233022,40.0502116 45.8398356,42.5171707 Z" id="Shape"></path>
                    </g>
                </g>
            </g>
        </g>
    </g>
</svg>