<?xml version="1.0" encoding="UTF-8" standalone="no"?>
<svg width="50px" height="50px" viewBox="0 0 50 50" version="1.1" xmlns="http://www.w3.org/2000/svg" xmlns:xlink="http://www.w3.org/1999/xlink">
    <!-- Generator: Sketch 43.2 (39069) - http://www.bohemiancoding.com/sketch -->
    <title>vehicle-servicing</title>
    <desc>Created with Sketch.</desc>
    <defs></defs>
    <g id="Page-1" stroke="none" stroke-width="1" fill="none" fill-rule="evenodd">
        <g id="desktop5" transform="translate(-815.000000, -2299.000000)" fill-rule="nonzero" fill="#FFFFFF">
            <g id="service" transform="translate(0.000000, 2285.000000)">
                <g id="vehicle-servicing" transform="translate(815.000000, 14.000000)">
                    <g id="Capa_1">
                        <g id="Group">
                            <path d="M47.4112735,19.7390397 L43.9039666,19.1440501 C43.5386221,17.9645094 43.0688935,16.8267223 42.4947808,15.7411273 L44.5615866,12.8496868 C45.4384134,11.6179541 45.302714,9.93736952 44.2275574,8.87265136 L41.1169102,5.76200418 C40.5323591,5.17745303 39.7599165,4.85386221 38.9352818,4.85386221 C38.2881002,4.85386221 37.6722338,5.05219207 37.1503132,5.42797495 L34.2484342,7.49478079 C33.1210856,6.89979123 31.9415449,6.4091858 30.7202505,6.04384134 L30.1356994,2.5782881 C29.8851775,1.08559499 28.6012526,0 27.0876827,0 L22.6931106,0 C21.1795407,0 19.8956159,1.08559499 19.6450939,2.5782881 L19.039666,6.12734864 C17.8705637,6.49269311 16.7327766,6.97286013 15.6471816,7.55741127 L12.776618,5.49060543 C12.2546973,5.11482255 11.6283925,4.91649269 10.9812109,4.91649269 C10.1565762,4.91649269 9.3736952,5.24008351 8.79958246,5.82463466 L5.67849687,8.93528184 C4.61377871,10 4.46764092,11.6805846 5.34446764,12.9123173 L7.43215031,15.8455115 C6.85803758,16.9415449 6.39874739,18.0793319 6.04384134,19.2588727 L2.5782881,19.8434238 C1.08559499,20.0939457 0,21.3778706 0,22.8914405 L0,27.2860125 C0,28.7995825 1.08559499,30.0835073 2.5782881,30.3340292 L6.12734864,30.9394572 C6.49269311,32.1085595 6.97286013,33.2463466 7.55741127,34.3319415 L5.50104384,37.1920668 C4.62421712,38.4237996 4.75991649,40.1043841 5.83507307,41.1691023 L8.94572025,44.2797495 C9.5302714,44.8643006 10.302714,45.1878914 11.1273486,45.1878914 C11.7745303,45.1878914 12.3903967,44.9895616 12.9123173,44.6137787 L15.8455115,42.526096 C16.8997912,43.0793319 18.006263,43.5281837 19.1440501,43.8830898 L19.7286013,47.3903967 C19.9791232,48.8830898 21.263048,49.9686848 22.776618,49.9686848 L27.1816284,49.9686848 C28.6951983,49.9686848 29.9791232,48.8830898 30.2296451,47.3903967 L30.8246347,43.8830898 C32.0041754,43.5177453 33.1419624,43.0480167 34.2275574,42.473904 L37.1189979,44.5407098 C37.6409186,44.9164927 38.2672234,45.1148225 38.914405,45.1148225 L38.914405,45.1148225 C39.7390397,45.1148225 40.5114823,44.7912317 41.0960334,44.2066806 L44.2066806,41.0960334 C45.2713987,40.0313152 45.4175365,38.3507307 44.5407098,37.1189979 L42.473904,34.217119 C43.0480167,33.1210856 43.5281837,31.9832985 43.8830898,30.8141962 L47.3903967,30.2296451 C48.8830898,29.9791232 49.9686848,28.6951983 49.9686848,27.1816284 L49.9686848,22.7870564 C49.9895616,21.2734864 48.9039666,19.9895616 47.4112735,19.7390397 Z M47.17119,27.1816284 C47.17119,27.3173278 47.0772443,27.4321503 46.9415449,27.4530271 L42.5574113,28.1837161 C42.0041754,28.2776618 41.565762,28.6847599 41.4300626,29.217119 C41.0334029,30.7515658 40.4279749,32.223382 39.6137787,33.5908142 C39.3319415,34.0709812 39.3528184,34.6659708 39.6764092,35.125261 L42.2546973,38.7578288 C42.3277662,38.8622129 42.3173278,39.0187891 42.223382,39.1127349 L39.1127349,42.223382 C39.039666,42.2964509 38.9665971,42.3068894 38.914405,42.3068894 C38.8517745,42.3068894 38.7995825,42.2860125 38.7578288,42.2546973 L35.1356994,39.6764092 C34.6868476,39.3528184 34.0814196,39.3319415 33.6012526,39.6137787 C32.2338205,40.4279749 30.7620042,41.0334029 29.2275574,41.4300626 C28.6847599,41.565762 28.2776618,42.0146138 28.1941545,42.5574113 L27.4530271,46.9415449 C27.4321503,47.0772443 27.3173278,47.17119 27.1816284,47.17119 L22.7870564,47.17119 C22.651357,47.17119 22.5365344,47.0772443 22.5156576,46.9415449 L21.7849687,42.5574113 C21.691023,42.0041754 21.2839248,41.565762 20.7515658,41.4300626 C19.2588727,41.0438413 17.8183716,40.4488518 16.4718163,39.6764092 C16.2526096,39.5511482 16.0020877,39.4885177 15.7620042,39.4885177 C15.480167,39.4885177 15.1878914,39.5720251 14.9478079,39.7494781 L11.2943633,42.348643 C11.2421712,42.3799582 11.1899791,42.4008351 11.1377871,42.4008351 C11.0960334,42.4008351 11.0125261,42.3903967 10.9394572,42.3173278 L7.82881002,39.2066806 C7.7348643,39.1127349 7.72442589,38.9665971 7.79749478,38.8517745 L10.3653445,35.2505219 C10.6889353,34.7912317 10.7098121,34.1858038 10.4279749,33.7056367 C9.61377871,32.348643 8.9874739,30.8768267 8.5908142,29.34238 C8.44467641,28.8100209 8.00626305,28.4029228 7.46346555,28.308977 L3.0480167,27.5574113 C2.91231733,27.5365344 2.81837161,27.4217119 2.81837161,27.2860125 L2.81837161,22.8914405 C2.81837161,22.7557411 2.91231733,22.6409186 3.0480167,22.6200418 L7.40083507,21.8893528 C7.95407098,21.7954071 8.40292276,21.388309 8.53862213,20.8455115 C8.92484342,19.3110647 9.51983299,17.82881 10.3235908,16.4613779 C10.605428,15.9812109 10.5741127,15.3862213 10.2505219,14.9373695 L7.65135699,11.2839248 C7.5782881,11.1795407 7.58872651,11.0229645 7.68267223,10.9290188 L10.7933194,7.81837161 C10.8663883,7.74530271 10.9394572,7.7348643 10.9916493,7.7348643 C11.0542797,7.7348643 11.1064718,7.75574113 11.1482255,7.78705637 L14.7494781,10.3549061 C15.2087683,10.6784969 15.8141962,10.6993737 16.2943633,10.4175365 C17.651357,9.60334029 19.1231733,8.97703549 20.65762,8.58037578 C21.1899791,8.434238 21.5970772,7.99582463 21.691023,7.45302714 L22.4425887,3.03757829 C22.4634656,2.90187891 22.5782881,2.80793319 22.7139875,2.80793319 L27.1085595,2.80793319 C27.2442589,2.80793319 27.3590814,2.90187891 27.3799582,3.03757829 L28.1106472,7.39039666 C28.2045929,7.94363257 28.611691,8.39248434 29.1544885,8.52818372 C30.7306889,8.92484342 32.2338205,9.54070981 33.6325678,10.3653445 C34.1127349,10.6471816 34.7077244,10.6263048 35.1670146,10.302714 L38.7682672,7.71398747 C38.8204593,7.68267223 38.8726514,7.66179541 38.9248434,7.66179541 C38.9665971,7.66179541 39.0501044,7.67223382 39.1231733,7.74530271 L42.2338205,10.8559499 C42.3277662,10.9498956 42.3382046,11.0960334 42.2651357,11.2108559 L39.6868476,14.8329854 C39.3632568,15.2818372 39.34238,15.8872651 39.6242171,16.3674322 C40.4384134,17.7348643 41.0438413,19.2066806 41.440501,20.7411273 C41.5762004,21.2839248 42.0250522,21.691023 42.5678497,21.7745303 L46.9519833,22.5156576 C47.0876827,22.5365344 47.1816284,22.651357 47.1816284,22.7870564 L47.1816284,27.1816284 L47.17119,27.1816284 L47.17119,27.1816284 Z" id="Shape"></path>
                            <path d="M24.782881,14 C18.8329854,14 14,18.8329854 14,24.782881 C14,30.7327766 18.8329854,35.565762 24.782881,35.565762 C30.7327766,35.565762 35.565762,30.7327766 35.565762,24.782881 C35.565762,18.8329854 30.7327766,14 24.782881,14 Z M24.782881,32.7473904 C20.388309,32.7473904 16.8183716,29.177453 16.8183716,24.782881 C16.8183716,20.388309 20.388309,16.8183716 24.782881,16.8183716 C29.177453,16.8183716 32.7473904,20.388309 32.7473904,24.782881 C32.7473904,29.177453 29.177453,32.7473904 24.782881,32.7473904 Z" id="Shape"></path>
                        </g>
                    </g>
                </g>
            </g>
        </g>
    </g>
</svg>