<?xml version="1.0" encoding="UTF-8" standalone="no"?>
<svg width="39px" height="35px" viewBox="0 0 39 35" version="1.1" xmlns="http://www.w3.org/2000/svg" xmlns:xlink="http://www.w3.org/1999/xlink">
    <!-- Generator: Sketch 43.2 (39069) - http://www.bohemiancoding.com/sketch -->
    <title>Facebook</title>
    <desc>Created with Sketch.</desc>
    <defs></defs>
    <g id="Page-1" stroke="none" stroke-width="1" fill="none" fill-rule="evenodd">
        <g id="desktop5" transform="translate(-783.000000, -1956.000000)" fill="#FFFFFF">
            <g id="facebook-instagram" transform="translate(0.000000, 1725.000000)">
                <path d="M803.312575,266 L785.098914,266 C783.939376,266 783,265.134911 783,264.068148 L783,232.931716 C783,231.864682 783.939524,231 785.098914,231 L818.930334,231 C820.089429,231 821.029101,231.864682 821.029101,232.931716 L821.029101,264.068148 C821.029101,265.135046 820.089281,266 818.930334,266 L809.239529,266 L809.239529,252.446071 L814.182691,252.446071 L814.922859,247.163865 L809.239529,247.163865 L809.239529,243.791509 C809.239529,242.262189 809.700954,241.220007 812.083776,241.220007 L815.122953,241.218785 L815.122953,236.494337 C814.597339,236.429964 812.793252,236.286145 810.694338,236.286145 C806.3125,236.286145 803.312575,238.74778 803.312575,243.268381 L803.312575,247.163865 L798.356723,247.163865 L798.356723,252.446071 L803.312575,252.446071 L803.312575,266 L803.312575,266 Z" id="Facebook"></path>
            </g>
        </g>
    </g>
</svg>