<?xml version="1.0" encoding="UTF-8" standalone="no"?>
<svg width="31px" height="28px" viewBox="0 0 31 28" version="1.1" xmlns="http://www.w3.org/2000/svg" xmlns:xlink="http://www.w3.org/1999/xlink">
    <!-- Generator: Sketch 43.2 (39069) - http://www.bohemiancoding.com/sketch -->
    <title>instagram-white</title>
    <desc>Created with Sketch.</desc>
    <defs></defs>
    <g id="Page-1" stroke="none" stroke-width="1" fill="none" fill-rule="evenodd">
        <g id="desktop5" transform="translate(-691.000000, -56.000000)" fill="#FFFFFF">
            <g id="nav">
                <g id="social-media" transform="translate(498.000000, 39.000000)">
                    <g id="instagram-white" transform="translate(193.000000, 17.000000)">
                        <path d="M21.252955,6.12918991 L21.252955,7.64194567 L21.252955,7.68616468 C21.2168651,8.32617673 21.8149267,8.80793126 22.4903238,8.79862199 C23.6220007,8.78465809 24.7562555,8.78465809 25.8905102,8.79862199 C26.5968416,8.80560394 27.1433461,8.31221283 27.1356126,7.688492 C27.1227233,6.65050882 27.1304569,5.61252564 27.1304569,4.57454245 C27.127879,4.46050394 27.1149898,4.3418108 27.0814777,4.23475424 C26.9293844,3.7646363 26.4834161,3.47604904 25.9059773,3.47604904 C24.782034,3.47372173 23.6555128,3.48768563 22.5289916,3.47139441 C21.8303938,3.45975783 21.219443,3.9205665 21.2477993,4.61410684 C21.271,5.11913453 21.252955,5.62416222 21.252955,6.12918991 L21.252955,6.12918991 Z M9.4567057,14.1188676 C9.45412785,17.0536138 12.0809587,19.4367859 15.3238961,19.4391133 C18.5977678,19.4414406 21.2142873,17.0815416 21.2349101,14.1351588 C21.2555329,11.3284151 18.7601724,8.80793126 15.3548304,8.80327662 C12.0165124,8.79629467 9.45155,11.2376497 9.4567057,14.1188676 L9.4567057,14.1188676 Z M3.55342534,12.0033369 L3.55342534,12.2849422 L3.55342534,23.5282084 C3.55342534,23.628283 3.55600319,23.7330123 3.56889245,23.8307596 C3.63591659,24.2915683 3.96588161,24.6313565 4.46340698,24.7337584 C4.59487742,24.7616862 4.73408141,24.7593589 4.8681297,24.7593589 C11.8566856,24.7616862 18.8426637,24.7616862 25.8312196,24.7616862 C25.8853545,24.7616862 25.9420672,24.7593589 25.99878,24.7616862 C26.2101638,24.7640135 26.4060806,24.7058306 26.5865302,24.6034287 C26.9680522,24.3800063 27.1330347,24.0588366 27.1304569,23.6515562 C27.127879,22.7369208 27.1304569,21.8199581 27.1304569,20.9053227 L27.1304569,12.2756329 C27.1304569,12.1848676 27.1253012,12.0964295 27.1227233,12.0103188 L24.4933146,12.0103188 C25.9420672,17.158343 21.9257743,22.1923287 16.1049852,22.6159003 C13.4936214,22.8067403 11.1426207,22.1388004 9.18087557,20.5632071 C6.3194602,18.2638184 5.3965893,15.3663093 6.18025621,12.0033369 L3.55342534,12.0033369 Z M15.3496747,27.9640738 C11.4236065,27.9640738 7.49238272,27.9664011 3.56373674,27.9617465 C2.14334046,27.9594191 1.10188838,27.3589715 0.41102413,26.2511688 C0.137771851,25.8159606 0.0243463771,25.3388607 0.00114571186,24.8431423 C-0.00143213983,24.7919413 0.00114571186,24.7407403 0.00114571186,24.6918667 L0.00114571186,3.54121391 C-0.00143213983,2.71501653 0.282131546,1.9795845 0.890504544,1.36284562 C1.58394665,0.657668703 2.46041622,0.278316106 3.50702401,0.275988789 C11.3952502,0.271334156 19.2834763,0.273661473 27.1717025,0.275988789 C29.0767349,0.275988789 30.6492244,1.68168798 30.6827365,3.40157491 C30.6853144,3.45975783 30.6827365,3.51561342 30.6827365,3.57379634 C30.6853144,10.6116016 30.6827365,17.6447522 30.6853144,24.6802301 C30.6853144,25.2946417 30.5512661,25.8718162 30.1929447,26.3931351 C29.4943469,27.4031905 28.4915626,27.9570918 27.1613911,27.9594191 C23.2224337,27.9687284 19.2860542,27.9640738 15.3496747,27.9640738 L15.3496747,27.9640738 Z" id="Fill-435"></path>
                    </g>
                </g>
            </g>
        </g>
    </g>
</svg>