<?xml version="1.0" encoding="UTF-8" standalone="no"?>
<svg width="54px" height="50px" viewBox="0 0 54 50" version="1.1" xmlns="http://www.w3.org/2000/svg" xmlns:xlink="http://www.w3.org/1999/xlink">
    <!-- Generator: Sketch 43.2 (39069) - http://www.bohemiancoding.com/sketch -->
    <title>mechanic-address</title>
    <desc>Created with Sketch.</desc>
    <defs></defs>
    <g id="Page-1" stroke="none" stroke-width="1" fill="none" fill-rule="evenodd">
        <g id="desktop5" transform="translate(-814.000000, -858.000000)" fill="#FFFFFF">
            <g id="contact" transform="translate(0.000000, 838.000000)">
                <g id="noun_823239_cc" transform="translate(660.000000, 20.000000)">
                    <g id="Group">
                        <g id="mechanic-address" transform="translate(154.000000, 0.000000)">
                            <path d="M6.73492433,0 C5.37359058,0 4.13893872,0.831861012 3.61699306,2.10182396 L0.402381608,11.6765534 C-0.406181458,14.0555024 -0.00856422407,16.5771238 1.70756214,18.432574 C3.16170872,20.0047863 5.4320683,20.8143082 7.71930294,20.3013549 C9.14220815,19.982242 10.405964,19.1308326 11.3294231,17.7711767 C11.5757315,18.0957328 11.8556539,18.3959127 12.1577962,18.6656166 C13.3615169,19.7400801 14.9721774,20.4420648 16.6600099,20.4256444 C18.7773351,20.4050762 20.6355202,19.2659346 21.7818544,17.5936203 C22.9172086,19.2960709 24.8267489,20.4225535 26.9871956,20.4256444 C29.1035534,20.4290534 31.043443,19.3341378 32.1969322,17.6713008 C33.3948366,19.4068308 35.3979661,20.5122021 37.6132117,20.4189864 C39.2621865,20.3496684 40.8024398,19.6256519 41.9440377,18.5613021 C42.1879161,18.333939 42.4060206,18.0787692 42.6120089,17.8155652 C43.4966671,19.0829373 44.8064183,20.0295089 46.3869254,20.3191105 C48.6697275,20.737405 51.0007327,19.9583318 52.5019382,18.1484838 C54.0042462,16.3373062 54.43328,13.8176041 53.5302617,11.6121888 L50.3925554,2.13733524 C49.8705085,0.867292748 48.6183789,0 47.2570452,0 L6.73492433,0 Z M6.73492433,2.27272197 L12.7202983,2.27272197 L10.3889905,14.2777542 C9.7967774,16.8372255 8.73070347,17.746162 7.23370548,18.0818998 C5.75086004,18.4144445 4.26550371,17.8697981 3.35112286,16.8811754 C2.16569476,15.5994965 1.9326776,14.1775817 2.5315398,12.4156312 L5.69781115,2.96963079 C5.87351429,2.54573417 6.27631639,2.27272197 6.73492433,2.27272197 Z M15.0120543,2.27272197 L21.821405,2.27272197 L20.711782,14.182318 C20.5149512,16.2926654 18.6768599,18.1331383 16.6380363,18.1529224 C15.6166462,18.1631496 14.4480661,17.6756303 13.6475469,16.9610752 C12.8470278,16.24652 12.4805498,15.4101277 12.5950527,14.7260838 L15.0120543,2.27272197 Z M24.0802029,2.27272197 L29.9117676,2.27272197 L31.041166,14.2311463 C31.0321659,16.3041188 29.1026826,18.1555474 26.991591,18.1529224 C24.8486156,18.1495133 23.1019849,16.4835365 22.9595931,14.3221438 L24.0802029,2.27272197 Z M32.1727615,2.27272197 L38.9821133,2.27272197 L41.4254817,14.7260838 C41.5164945,15.3729459 41.1714951,16.1887963 40.4169323,16.8922719 C39.6599283,17.5980544 38.5502591,18.1052111 37.5209254,18.1484838 C35.4202276,18.2368927 33.6190522,16.7082064 33.3373163,14.599575 L32.1727615,2.27272197 Z M41.2760665,2.27272197 L47.2570452,2.27272197 C47.7138531,2.27272197 48.1152118,2.54631008 48.2919612,2.96741137 L51.43626,12.4444846 L51.4516411,12.4799959 C52.0263832,13.883663 51.7569683,15.5067218 50.7770785,16.6880826 C49.7960974,17.8707503 48.3466398,18.3673083 46.7890266,18.0818998 C45.3692376,17.8217527 44.1937771,16.6112214 43.7941419,15.1056113 L41.2760665,2.27272197 Z M3.35771471,22.7116833 C2.73722993,22.7219106 2.24179499,23.2368435 2.25028877,23.8635807 L2.25028877,45.4544393 C2.25028877,47.9529562 4.2767587,49.9998833 6.75030527,49.9998833 L29.2503878,49.9998833 C29.9483966,50.0089742 30.4857998,49.3799836 30.3753919,48.6837466 L30.3753919,29.5453856 L30.3753919,27.2726636 L42.7504373,27.2726636 L42.7504373,29.5453856 L42.7504373,48.6726489 C42.6323118,49.3729995 43.1721676,50.009906 43.8754414,49.9998833 L47.2658348,49.9998833 C49.7393927,49.9998833 51.7658513,47.9529562 51.7658513,45.4544393 L51.7658513,23.8635807 C51.7748514,23.2238208 51.2588322,22.7029447 50.6254662,22.7116833 C50.0041489,22.7207742 49.5073606,23.2359912 49.5158431,23.8635807 L49.5158431,45.4544393 C49.5158431,46.7331863 48.531802,47.7271613 47.2658348,47.7271613 L45.0004455,47.7271613 L45.0004455,29.5453856 L45.0004455,27.2726636 C45.0004455,26.0332347 43.9774793,24.9999416 42.7504373,24.9999416 L30.3753919,24.9999416 C29.1483499,24.9999416 28.1253837,26.0332347 28.1253837,27.2726636 L28.1253837,29.5453856 L28.1253837,47.7271613 L6.75030527,47.7271613 C5.48433813,47.7271613 4.50029702,46.7331863 4.50029702,45.4544393 L4.50029702,23.8635807 C4.50929705,23.2229344 3.99192453,22.7016834 3.35771471,22.7116833 Z M11.2503218,24.9999416 C10.0232801,24.9999416 9.00031352,26.0332347 9.00031352,27.2726636 L9.00031352,37.4999125 C9.00031352,38.7393414 10.0232801,39.7726344 11.2503218,39.7726344 L21.3753589,39.7726344 C22.6024009,39.7726344 23.6253671,38.7393414 23.6253671,37.4999125 L23.6253671,27.2726636 C23.6253671,26.0332347 22.6024009,24.9999416 21.3753589,24.9999416 L11.2503218,24.9999416 Z M11.2503218,27.2726636 L21.3753589,27.2726636 L21.3753589,37.4999125 L11.2503218,37.4999125 L11.2503218,27.2726636 Z M39.3578467,36.3480151 C38.7373844,36.3582424 38.241927,36.8731753 38.2504208,37.4999125 L38.2504208,39.7726344 C38.2289332,41.3093581 40.5219504,41.3093581 40.500429,39.7726344 L40.500429,37.4999125 C40.5094291,36.8592662 39.992034,36.3380152 39.3578467,36.3480151 Z"></path>
                        </g>
                    </g>
                </g>
            </g>
        </g>
    </g>
</svg>