<?xml version="1.0" encoding="UTF-8" standalone="no"?>
<svg width="165px" height="102px" viewBox="0 0 165 102" version="1.1" xmlns="http://www.w3.org/2000/svg" xmlns:xlink="http://www.w3.org/1999/xlink">
    <!-- Generator: Sketch 43.2 (39069) - http://www.bohemiancoding.com/sketch -->
    <title>audi-service</title>
    <desc>Created with Sketch.</desc>
    <defs></defs>
    <g id="Page-1" stroke="none" stroke-width="1" fill="none" fill-rule="evenodd">
        <g id="desktop5" transform="translate(-165.000000, -1604.000000)" fill="#FFFFFF">
            <g id="brands" transform="translate(0.000000, 1590.000000)">
                <g id="audi-service" transform="translate(165.000000, 14.000000)">
                    <path d="M138.641004,100.945277 C138.641004,100.945277 138.64057,101.056391 138.64057,79.1385447 L129.641566,79.1385447 L129.641566,100.945711 L138.641004,100.945277" id="Fill-1"></path>
                    <path d="M90.9957191,91.891583 L90.9957191,79.4697191 L82.272766,79.4697191 L82.272766,88.9652681 C82.272766,91.7257787 82.1625191,92.4988085 81.9967149,93.2167149 C81.3894894,95.2041957 79.2913277,96.0874723 77.1384766,96.0874723 C74.1570383,96.0874723 72.777217,94.9281447 72.2251149,93.1064681 C72.0593106,92.4983745 72.0041872,91.8364596 71.9490638,91.1736766 C71.8935064,90.4562043 71.9490638,89.6831745 71.9490638,88.8550213 L71.9490638,79.4697191 L63.1154298,79.4697191 L63.1154298,91.9467064 C63.1154298,94.7623404 64.0542638,96.8600681 65.5998894,98.2958809 C68.2497191,100.890153 72.7220936,101.663617 76.8624255,101.663617 C81.8864681,101.663183 85.7507489,100.945711 88.5112596,98.2407574 C89.9466383,96.8600681 90.9957191,95.0383915 90.9957191,91.891583" id="Fill-2"></path>
                    <path d="M48.153983,90.3455234 C47.8779319,90.2904 47.3813872,90.2352766 46.8292851,90.2352766 L36.8918809,90.2352766 C36.3949021,90.2352766 35.8428,90.290834 35.5667489,90.3459574 C35.7321191,90.1801532 36.0637277,89.8489787 36.3949021,89.4071234 L40.8668426,82.0088681 C41.4740681,81.0153447 41.7501191,80.3534298 41.860366,80.0769447 C41.9710468,80.3529957 42.2466638,81.0153447 42.8538894,82.0644255 L47.4365106,89.5178043 C47.6570043,89.8489787 47.9886128,90.1801532 48.153983,90.3455234 Z M64.8268596,100.945277 L44.9520511,71.1330638 L33.7997617,71.1330638 L36.7260766,74.6110468 C36.7812,74.6661702 36.8918809,74.7217277 37.0021277,74.7768511 C36.8918809,74.8324085 36.7812,74.8875319 36.7260766,74.9426553 L19.3908511,100.945277 L29.4385021,100.945277 L32.1438894,96.4737702 C32.2541362,96.2528426 32.3092596,96.0323489 32.3092596,95.9216681 C32.4199404,95.9216681 32.6959915,96.0323489 32.9720426,96.0323489 L50.9149277,96.0319149 C51.1909787,96.0319149 51.4114723,95.9772255 51.5217191,95.9216681 C51.5217191,96.0319149 51.5217191,96.1977191 51.6324,96.3635234 L54.448034,100.945277 L64.8268596,100.945277 L64.8268596,100.945277 Z" id="Fill-3"></path>
                    <path d="M127.21223,89.7382979 C127.21223,87.3093957 126.218706,84.4937617 123.127021,80.5739234 L115.674077,71.1330638 L105.295251,71.1330638 L111.202136,77.7582894 C112.196094,78.8624936 113.465668,79.856017 113.465668,79.856017 C112.030289,79.0278638 110.208613,78.6966894 108.773234,78.6966894 C105.34994,78.6966894 101.871523,79.4145957 98.7802723,81.1264596 C95.4676596,82.9472681 93.2592511,85.9842638 93.2592511,90.014783 C93.2596851,93.106034 94.6395064,95.4802468 96.4060596,97.3019234 C100.381889,101.276885 107.613472,101.663617 110.263736,101.663617 C114.183574,101.663183 120.311387,100.78034 123.789804,97.6330979 C125.831974,95.7562979 127.21223,93.1611574 127.21223,89.7382979 Z M118.599957,90.0143489 C118.599957,92.2778809 117.109455,93.9893106 115.232221,94.9281447 C113.686596,95.7562979 111.864485,95.9772255 110.263736,95.9772255 C108.662987,95.9767915 106.785319,95.645617 105.239694,94.8725872 C103.362026,93.9346213 101.927081,92.1125106 101.927081,90.1250298 C101.927081,87.750817 103.749191,85.873583 105.902043,84.935617 C107.22674,84.3279574 108.827923,84.1074638 110.097932,84.1074638 C111.311949,84.1074638 113.078936,84.272834 114.459626,84.8249362 C116.944085,85.873583 118.599957,87.8614979 118.599957,90.0143489 L118.599957,90.0143489 Z" id="Fill-4"></path>
                    <path d="M135.781098,0.0594638298 C129.053438,0.0594638298 122.873974,2.37074043 117.975804,6.2454383 C113.080238,2.37030638 106.899038,0.0594638298 100.170945,0.0594638298 C93.4441532,0.0594638298 87.2603489,2.37204255 82.365217,6.2454383 C77.4705191,2.37030638 71.2888851,0.0594638298 64.5603574,0.0594638298 C57.834,0.0594638298 51.6497617,2.37204255 46.7550638,6.2454383 C41.8573277,2.37030638 35.6778638,0.0594638298 28.9502043,0.0594638298 C13.0885532,0.0594638298 0.234817021,12.9132 0.234817021,28.7748511 C0.234817021,44.6360681 13.0885532,57.4902383 28.9502043,57.4902383 C35.6778638,57.4902383 41.860366,55.1785277 46.7550638,51.3038298 C51.6497617,55.1772255 57.834,57.4902383 64.5603574,57.4902383 C71.2888851,57.4902383 77.4705191,55.1789617 82.365217,51.3038298 C87.2603489,55.1772255 93.4441532,57.4902383 100.170945,57.4902383 C106.899038,57.4902383 113.080238,55.1789617 117.975804,51.3038298 C122.870502,55.1785277 129.053004,57.4902383 135.780664,57.4902383 C151.642749,57.4902383 164.496485,44.6360681 164.496485,28.7748511 C164.496485,12.9132 151.642749,0.0594638298 135.781098,0.0594638298 Z M42.0565532,46.6126979 C38.3980085,49.2829277 33.8266723,50.9123234 28.9502043,50.9123234 C16.7141106,50.9118894 6.81273191,41.0105106 6.81273191,28.7748511 C6.81273191,16.5387574 16.7141106,6.63737872 28.9502043,6.63737872 C33.8266723,6.63694468 38.3945362,8.26677447 42.0565532,10.9365702 C38.1623234,15.8382128 35.8449702,22.0276596 35.8449702,28.7748511 C35.8449702,35.4951319 38.1901021,41.7201702 42.0565532,46.6126979 Z M46.7550638,41.9276426 C44.0297106,38.2469617 42.4233191,33.7055745 42.4233191,28.7748511 C42.4233191,23.8380511 44.0253702,19.3049106 46.7550638,15.6216255 C49.4851915,19.3049106 51.0876766,23.8380511 51.0876766,28.7748511 C51.0876766,33.7055745 49.480417,38.2469617 46.7550638,41.9276426 Z M77.6675745,46.6126979 C73.9942723,49.317217 69.4563574,50.9053787 64.545166,50.9053787 C59.6352766,50.9053787 55.1260085,49.3154809 51.4535745,46.6131319 C55.3208936,41.7201702 57.6655915,35.4951319 57.6655915,28.7748511 C57.6655915,22.0276596 55.3486723,15.8382128 51.4535745,10.9365702 C55.1260085,8.23378723 59.6352766,6.64388936 64.545166,6.64388936 C69.4563574,6.64345532 73.9942723,8.23205106 77.6675745,10.9365702 C73.7724766,15.8382128 71.4555574,22.0276596 71.4555574,28.7748511 C71.4555574,35.4951319 73.7998213,41.7201702 77.6675745,46.6126979 Z M82.365217,41.9276426 C79.6402979,38.2469617 78.0334723,33.7055745 78.0334723,28.7748511 C78.0334723,23.8380511 79.6355234,19.3049106 82.365217,15.6216255 C85.0953447,19.3049106 86.6978298,23.8380511 86.6978298,28.7748511 C86.6982638,33.7055745 85.0905702,38.2469617 82.365217,41.9276426 Z M113.277728,46.6126979 C109.60486,49.317217 105.066077,50.9053787 100.155319,50.9053787 C95.2454298,50.9053787 90.7361617,49.3154809 87.0637277,46.6131319 C90.9314809,41.7201702 93.2757447,35.4951319 93.2757447,28.7748511 C93.2757447,22.0276596 90.9588255,15.8382128 87.0637277,10.9365702 C90.7361617,8.23378723 95.2454298,6.64388936 100.155319,6.64388936 C105.066511,6.64345532 109.604426,8.23205106 113.277728,10.9365702 C109.38263,15.8382128 107.065277,22.0276596 107.065277,28.7748511 C107.065277,35.4951319 109.409974,41.7201702 113.277728,46.6126979 Z M117.976238,41.9276426 C115.250885,38.2469617 113.643626,33.7055745 113.643626,28.7748511 C113.64406,23.8380511 115.245677,19.3049106 117.975804,15.6216255 C120.705932,19.3049106 122.307983,23.8380511 122.307983,28.7748511 C122.307983,33.7055745 120.701591,38.2469617 117.976238,41.9276426 Z M135.781098,50.9118894 C130.90463,50.9118894 126.333294,49.2829277 122.673881,46.6131319 C126.5412,41.7201702 128.885898,35.4951319 128.885898,28.7748511 C128.886332,22.0276596 126.568545,15.8382128 122.673881,10.9365702 C126.336332,8.26677447 130.904196,6.63737872 135.780664,6.63737872 C148.016757,6.63694468 157.91857,16.5387574 157.91857,28.7748511 C157.919004,41.0105106 148.016757,50.9123234 135.781098,50.9118894 L135.781098,50.9118894 Z" id="Fill-5"></path>
                </g>
            </g>
        </g>
    </g>
</svg>