<?xml version="1.0" encoding="UTF-8" standalone="no"?>
<svg width="100px" height="99px" viewBox="0 0 100 99" version="1.1" xmlns="http://www.w3.org/2000/svg" xmlns:xlink="http://www.w3.org/1999/xlink">
    <!-- Generator: Sketch 43.2 (39069) - http://www.bohemiancoding.com/sketch -->
    <title>volkswagen-service</title>
    <desc>Created with Sketch.</desc>
    <defs></defs>
    <g id="Page-1" stroke="none" stroke-width="1" fill="none" fill-rule="evenodd">
        <g id="desktop5" transform="translate(-602.000000, -1605.000000)" fill="#FFFFFF">
            <g id="brands" transform="translate(0.000000, 1590.000000)">
                <g id="volkswagen-service" transform="translate(602.669382, 15.000000)">
                    <path d="M49.5002646,0 C22.1619835,0 0,22.1626311 0,49.5 C0,76.8384272 22.1619835,99 49.5002646,99 C76.8374874,99 99,76.8384272 99,49.5 C99,22.1626311 76.8374874,0 49.5002646,0 Z M49.5002646,94.5618646 C24.6130784,94.5618646 4.43864085,74.3873192 4.43864085,49.5 C4.43864085,24.6137391 24.6130784,4.43866457 49.5002646,4.43866457 C74.3863924,4.43866457 94.5613592,24.6137391 94.5613592,49.5 C94.5613592,74.3873192 74.3863924,94.5618646 49.5002646,94.5618646 L49.5002646,94.5618646 Z" id="Fill-2"></path>
                    <path d="M39.4166667,16.0526628 C42.6174242,15.1502265 46.0027056,14.6666667 49.5059524,14.6666667 C53.0037879,14.6666667 56.3863636,15.1491832 59.5833333,16.0500546 L49.5059524,37.5833333 L39.4166667,16.0526628" id="Fill-3"></path>
                    <path d="M68.3808974,20.1666667 C72.0906977,22.5340875 75.3262851,25.5772307 77.9166667,29.1227797 L61.6850956,65.0833333 L55.422086,51.1403783 L43.5545485,51.1403783 L37.291539,65.0833333 L21.0833333,29.089286 C23.6694667,25.5575598 26.8965575,22.5266445 30.593613,20.1671983 L43.5545485,48.9537172 L55.4624446,48.9537172 L68.3808974,20.1666667" id="Fill-4"></path>
                    <path d="M15.8423153,41.25 C15.075337,44.1356609 14.6666667,47.1684525 14.6666667,50.2961671 C14.6666667,63.9940913 22.5037994,75.8505082 33.9166667,81.5833333 L15.8423153,41.25" id="Fill-5"></path>
                    <path d="M40.3333333,83.8883042 C43.3911064,84.7750761 46.6227241,85.25 49.9641106,85.25 C53.3007703,85.25 56.5281863,84.7761362 59.5833333,83.8920146 L49.9641106,62.3333333 L40.3333333,83.8883042" id="Fill-6"></path>
                    <path d="M65.0833333,81.5833333 C76.4958895,75.839619 84.3333333,63.9606814 84.3333333,50.2367388 C84.3333333,47.1300292 83.9320184,44.1178945 83.1787005,41.25 L65.0833333,81.5833333" id="Fill-7"></path>
                </g>
            </g>
        </g>
    </g>
</svg>