<?xml version="1.0" encoding="UTF-8" standalone="no"?>
<svg width="51px" height="50px" viewBox="0 0 51 50" version="1.1" xmlns="http://www.w3.org/2000/svg" xmlns:xlink="http://www.w3.org/1999/xlink">
    <!-- Generator: Sketch 43.2 (39069) - http://www.bohemiancoding.com/sketch -->
    <title>vehicle-mechanic</title>
    <desc>Created with Sketch.</desc>
    <defs></defs>
    <g id="Page-1" stroke="none" stroke-width="1" fill="none" fill-rule="evenodd">
        <g id="desktop5" transform="translate(-1184.000000, -2299.000000)" fill-rule="nonzero" fill="#FFFFFF">
            <g id="service" transform="translate(0.000000, 2285.000000)">
                <g id="vehicle-mechanic" transform="translate(1184.000000, 14.000000)">
                    <path d="M25.5,26 C31.8509483,26 37,20.1796466 37,12.9999395 C37,3.0436544 31.851199,0 25.5,0 C19.1485503,0 14,3.0436544 14,12.9999395 C14.0001254,20.1796466 19.1486756,26 25.5,26 Z" id="Shape"></path>
                    <path d="M50.7505901,45.9740086 L44.981571,33.0705644 C44.7176998,32.4801121 44.2541491,31.9903992 43.6771724,31.692141 L34.7239998,27.0645589 C34.5265638,26.9627056 34.2874968,26.982507 34.1100038,27.1159188 C31.577738,29.0175936 28.6003687,30.0227611 25.5001006,30.0227611 C22.3993338,30.0227611 19.4222138,29.0175936 16.889948,27.1159188 C16.7119565,26.982507 16.4728895,26.9627056 16.2754535,27.0645589 L7.32290409,31.692141 C6.74567811,31.9903992 6.28262595,32.4798645 6.01850549,33.0705644 L0.249486399,45.9740086 C-0.148252342,46.8635855 -0.06673522,47.8813763 0.467613256,48.6973168 C1.00171244,49.5131336 1.90563014,50 2.88570526,50 L48.1141219,50 C49.094197,50 49.998364,49.5128861 50.5324632,48.6971931 C51.0665624,47.8813763 51.1483288,46.8632142 50.7505901,45.9740086 Z" id="Shape"></path>
                </g>
            </g>
        </g>
    </g>
</svg>