<?xml version="1.0" encoding="UTF-8" standalone="no"?>
<svg width="127px" height="102px" viewBox="0 0 127 102" version="1.1" xmlns="http://www.w3.org/2000/svg" xmlns:xlink="http://www.w3.org/1999/xlink">
    <!-- Generator: Sketch 43.2 (39069) - http://www.bohemiancoding.com/sketch -->
    <title>mercedes-service</title>
    <desc>Created with Sketch.</desc>
    <defs></defs>
    <g id="Page-1" stroke="none" stroke-width="1" fill="none" fill-rule="evenodd">
        <g id="desktop5" transform="translate(-1105.000000, -1604.000000)">
            <g id="brands" transform="translate(0.000000, 1590.000000)">
                <g id="mercedes-service" transform="translate(1104.836636, 14.000000)">
                    <path d="M0.852212475,86.0591739 L0.809709908,86.7687391 L1.45733376,86.7687391 C1.9327862,86.7687391 2.5371871,86.813087 2.5371871,87.4332174 L2.32107235,99.444087 C2.32107235,99.8868261 2.10495761,100.374652 1.24121901,100.374652 L0.593595164,100.374652 L0.550372215,101.084217 L4.91300852,101.084217 L4.91300852,100.374652 L4.17893877,100.374652 C3.61704044,100.374652 3.2280339,100.197261 3.2280339,99.444087 L3.44414864,87.9210435 L8.10934559,100.330304 L8.58479802,100.330304 L13.2932179,87.788 L13.5086123,99.444087 C13.5086123,99.8432174 13.1196057,100.374652 12.5152048,100.374652 L11.6082433,100.374652 L11.6082433,101.084217 L17.0939559,101.084217 L17.0939559,100.374652 L16.446332,100.374652 C15.9708796,100.374652 15.4097016,100.108565 15.4097016,99.4884348 L15.1935869,87.6106087 C15.1935869,87.2114783 15.6258164,86.7687391 16.0573255,86.7687391 L16.8778411,86.7687391 L16.8778411,86.0591739 L12.9474343,86.0591739 L8.88735866,96.962087 L4.82656262,86.0591739 L0.852212475,86.0591739" id="Fill-2" fill="#FFFFFF"></path>
                    <path d="M31.1327697,101.084217 L31.1327697,100.507696 L30.7005402,100.507696 C30.3115336,100.507696 29.6206868,100.374652 29.6206868,99.5771304 L29.6206868,93.7712609 C29.6206868,91.9537391 30.5276484,91.2892609 31.4346099,91.2892609 C31.7803935,91.2892609 31.9965083,91.4666522 31.9100624,92.1311304 C31.8236165,92.7963478 32.3855148,93.239087 32.8602469,93.1947391 C33.3356993,93.1503913 33.9401002,93.0624348 33.8536543,91.8214348 C33.7672084,90.5804348 33.0763616,90.003913 31.8668394,90.003913 C30.9166549,90.003913 30.1393622,90.6247826 29.9232475,90.9344783 C29.671834,91.2951739 29.3613491,91.1562174 29.3181262,90.7578261 C29.2749033,90.3586957 29.1020115,89.9595652 28.6705024,90.0926087 C27.7203179,90.4030435 26.8565793,90.536087 26.1217891,90.5804348 L26.1217891,91.0231739 C27.9357122,90.9344783 27.7635408,91.8650435 27.7635408,92.3085217 L27.7635408,99.5771304 C27.7635408,100.374652 27.0719736,100.507696 26.6836875,100.507696 L26.0785662,100.507696 L26.0785662,101.084217 L31.1327697,101.084217" id="Fill-4" fill="#FFFFFF"></path>
                    <path d="M40.714577,90.6794783 C40.0777589,90.202 39.277414,89.9292609 38.3027365,89.9292609 C35.5386289,89.9292609 33.966034,92.4829565 33.966034,95.6323913 C33.966034,98.7825652 35.2792912,101.320739 38.3027365,101.336261 C40.9811186,101.349565 41.6294628,99.7988696 42.0797018,97.41 L41.0675645,97.4055652 C40.9811186,98.2917826 40.6785579,100.330304 38.734966,100.374652 C36.2734191,100.430826 36.0998069,97.1838261 36.1430298,95.6323913 C36.1430298,94.6574783 36.2726987,90.7578261 38.3466798,90.7578261 C40.11738,90.7578261 41.1972333,92.0424348 41.1972333,93.5051739 L41.7584113,93.5051739 L41.7584113,89.7821739 L41.2836792,89.7821739 L40.714577,90.6794783" id="Fill-5" fill="#FFFFFF"></path>
                    <polygon id="Fill-7" fill="#FFFFFF" points="80.6345722 94.7461739 86.3363995 94.7461739 86.3363995 93.726913 80.6345722 93.726913"></polygon>
                    <path d="M72.8162612,97.3168696 L72.8162612,101.084217 L73.2909932,101.084217 L73.7232227,100.108565 C74.1554522,100.507696 75.0624137,101.172913 76.228713,101.172913 C77.3950122,101.172913 79.0360435,100.507696 79.6843877,99.2666957 C80.3320116,98.0256957 80.0294509,95.9871739 78.5613114,95.3663043 C77.2747083,94.8230435 76.1465894,94.1718696 75.2785285,93.726913 C74.5869613,93.3721304 74.4198326,92.6640435 74.5005154,92.2198261 C74.6301842,91.511 75.2353055,90.7578261 76.6177195,90.7127391 C77.9994131,90.6691304 78.6909803,91.8650435 78.8631517,93.239087 L79.3386041,93.239087 L79.3386041,89.6934783 L78.907095,89.6934783 L78.4316426,90.536087 C77.524681,89.9152174 77.1356745,89.8265217 76.3151589,89.8265217 C75.4946432,89.8265217 74.1122292,90.27 73.3342162,91.511 C72.5569235,92.752 72.7730382,94.7018261 74.6301842,95.4993478 C76.4880507,96.2976087 77.3517892,96.7846957 77.8697443,97.0507826 C78.3884196,97.3168696 78.6909803,98.3804783 78.3451967,99.0006087 C77.9994131,99.6214783 77.3517892,100.330304 76.3151589,100.330304 C75.2785285,100.330304 73.6367768,99.5771304 73.2477703,97.3168696 L72.8162612,97.3168696" id="Fill-8" fill="#FFFFFF"></path>
                    <path d="M114.715867,93.018087 L114.715867,99.5771304 C114.715867,100.374652 114.025021,100.507696 113.636014,100.507696 L113.376676,100.507696 L113.376676,101.084217 L118.085096,101.084217 L118.085096,100.507696 L117.652867,100.507696 C117.264581,100.507696 116.573013,100.374652 116.573013,99.5771304 L116.573013,93.0624348 C116.52979,90.0926087 113.938575,90.003913 113.030893,90.003913 C112.080708,90.003913 111.044078,90.6247826 110.827963,90.9344783 C110.57727,91.2951739 110.266785,91.1562174 110.223562,90.7578261 C110.180339,90.3586957 110.007447,89.9595652 109.575938,90.0926087 C108.625034,90.4030435 107.761295,90.536087 107.027225,90.5804348 L107.027225,91.0231739 C108.841148,90.9344783 108.668256,91.8650435 108.668256,92.3085217 L108.668256,99.5771304 C108.668256,100.374652 107.97741,100.507696 107.588403,100.507696 L106.984002,100.507696 L106.984002,101.084217 L112.037485,101.084217 L112.037485,100.507696 L111.605976,100.507696 C111.21697,100.507696 110.525402,100.374652 110.525402,99.5771304 L110.525402,93.7712609 C110.525402,92.7963478 110.871186,91.244913 112.642607,91.1118696 C114.413307,90.9788261 114.715867,92.1754783 114.715867,93.018087" id="Fill-10" fill="#FFFFFF"></path>
                    <path d="M119.035281,93.239087 L119.812573,90.2256522 L127.156152,90.2256522 L120.849924,100.463348 L124.218433,100.463348 C124.996446,100.463348 125.600847,100.152913 126.421362,98.1143913 L126.767146,98.1143913 L126.076299,101.084217 L118.559828,101.084217 L124.823554,90.8457826 L122.015503,90.8457826 C121.324656,90.8457826 120.547364,90.8457826 119.46751,93.239087 L119.035281,93.239087" id="Fill-11" fill="#FFFFFF"></path>
                    <path d="M100.288767,95.6767391 C100.245544,97.2281739 100.418436,100.47 102.879983,100.419 C105.03969,100.374652 105.601588,98.3804783 105.688034,97.4942609 L106.700172,97.4986957 C106.249212,99.8868261 105.385473,101.380609 102.448474,101.380609 C99.4243085,101.380609 98.1110512,98.826913 98.1110512,95.6767391 C98.1110512,92.5273043 99.6836462,89.9728696 102.448474,89.9728696 C105.428696,89.9728696 106.785897,92.5273043 106.785897,95.6767391 L100.288767,95.6767391 Z M100.33199,94.7905217 L104.608181,94.7905217 C104.608181,93.3277826 104.348843,90.9344783 102.53492,90.9344783 C100.245544,90.9344783 100.33199,93.8156087 100.33199,94.7905217 Z" id="Combined-Shape" fill="#FFFFFF"></path>
                    <path d="M19.3401085,95.6767391 C19.2968855,97.2281739 19.4704977,100.47 21.9320446,100.419 C24.0917513,100.374652 24.6536496,98.3804783 24.7393752,97.4942609 L25.7522329,97.4986957 C25.3012735,99.8868261 24.4375349,101.380609 21.4998151,101.380609 C18.4763699,101.380609 17.1623922,98.826913 17.1623922,95.6767391 C17.1623922,92.5273043 18.7357076,89.9728696 21.4998151,89.9728696 C24.4800375,89.9728696 25.8372381,92.5273043 25.8372381,95.6767391 L19.3401085,95.6767391 Z M19.3833314,94.7905217 L23.6595218,94.7905217 C23.6595218,93.3277826 23.4001841,90.9344783 21.586261,90.9344783 C19.2968855,90.9344783 19.3833314,93.8156087 19.3833314,94.7905217 Z" id="Combined-Shape" fill="#FFFFFF"></path>
                    <path d="M61.1100458,98.7796087 C61.1100458,99.2223478 60.937154,100.152913 62.7517975,100.064217 L62.7517975,100.507696 C62.0170074,100.552043 61.1532688,100.685087 60.2030843,100.994783 C59.7708548,101.128565 59.490626,100.52987 59.4474031,100.130739 C59.4041801,99.931913 59.2745113,100.042783 59.2528998,100.130739 C58.9935621,100.552043 57.740817,101.349565 56.7906325,101.349565 C55.840448,101.349565 52.6873339,100.994783 52.6873339,95.455 C52.6873339,91.244913 55.4082185,90.0482609 56.8770784,90.0482609 C58.0433776,90.0482609 58.6910015,90.5804348 59.2528998,91.1118696 L59.2528998,87.3001739 C59.2528998,86.8574348 59.123231,86.4583043 57.8704858,86.547 L57.8704858,86.1035217 C58.6045556,86.0591739 59.4690145,85.9268696 60.419199,85.6164348 C60.8514285,85.4833913 61.1100458,85.9046957 61.1100458,86.4139565 L61.1100458,98.7796087 Z M59.2528998,97.449913 L59.2528998,95.0122609 C59.2528998,93.6382174 59.080008,91.3336087 56.9635243,91.0675217 C54.8470406,90.8014348 54.7605947,93.8599565 54.7605947,95.4113913 C54.7605947,96.962087 54.5877029,100.596391 56.9203013,100.640739 C57.9569317,100.640739 59.2096769,99.8868261 59.2528998,97.449913 Z" id="Combined-Shape" fill="#FFFFFF"></path>
                    <path d="M88.2799915,98.8239565 L88.2799915,87.8766957 C88.2799915,86.7687391 87.1569152,86.6356957 86.5092913,86.6356957 L86.5092913,86.0591739 L92.9884114,86.0591739 C96.0118566,86.0591739 96.4873091,88.2314783 96.4873091,89.5168261 C96.4873091,90.8014348 95.4506787,92.7076522 94.4140483,92.973 C96.4873091,93.4164783 97.1781559,95.1453043 97.1781559,96.6073043 C97.09171,100.951174 93.4206409,101.084217 91.8221121,101.084217 L86.5092913,101.084217 L86.5092913,100.463348 C88.2367685,100.463348 88.2799915,99.444087 88.2799915,98.8239565 Z M90.1378579,92.8850435 L92.2975646,92.8850435 C93.9818188,92.8850435 94.5437172,91.4223043 94.5437172,89.5168261 C94.5437172,87.9646522 93.8953729,86.7687391 92.2975646,86.7687391 L90.1378579,86.7687391 L90.1378579,92.8850435 Z M90.1378579,100.374652 L92.3407875,100.374652 C93.9818188,100.374652 95.2777869,99.0449565 95.2777869,96.8290435 C95.2777869,94.6131304 94.0250418,93.5938696 92.6001252,93.5938696 L90.1378579,93.5938696 L90.1378579,100.374652 Z" id="Combined-Shape" fill="#FFFFFF"></path>
                    <path d="M45.257309,95.6767391 C45.214086,97.2281739 45.3876982,100.47 47.8492451,100.419 C50.0089518,100.374652 50.5708501,98.3804783 50.6565757,97.4942609 L51.6694334,97.4986957 C51.218474,99.8868261 50.3547354,101.380609 47.4170156,101.380609 C44.3935704,101.380609 43.0795927,98.826913 43.0795927,95.6767391 C43.0795927,92.5273043 44.6529081,89.9728696 47.4170156,89.9728696 C50.3979584,89.9728696 51.7544386,92.5273043 51.7544386,95.6767391 L45.257309,95.6767391 Z M45.3005319,94.7905217 L49.5767223,94.7905217 C49.5767223,93.3277826 49.318105,90.9344783 47.5034615,90.9344783 C45.214086,90.9344783 45.3005319,93.8156087 45.3005319,94.7905217 Z" id="Combined-Shape" fill="#FFFFFF"></path>
                    <path d="M64.9547271,95.6767391 C64.9115042,97.2281739 65.084396,100.47 67.5466633,100.419 C69.70637,100.374652 70.2675479,98.3804783 70.3539938,97.4942609 L71.3661312,97.4986957 C70.9151718,99.8868261 70.0514332,101.380609 67.1144338,101.380609 C64.0909885,101.380609 62.7770109,98.826913 62.7770109,95.6767391 C62.7770109,92.5273043 64.3496059,89.9728696 67.1144338,89.9728696 C70.0946561,89.9728696 71.4518567,92.5273043 71.4518567,95.6767391 L64.9547271,95.6767391 Z M64.9979501,94.7905217 L69.2741405,94.7905217 C69.2741405,93.3277826 69.0148028,90.9344783 67.2008797,90.9344783 C64.9115042,90.9344783 64.9979501,93.8156087 64.9979501,94.7905217 Z" id="Combined-Shape" fill="#FFFFFF"></path>
                    <path d="M63.4059048,76.3211304 C42.8260181,76.3181739 26.144121,59.3876522 26.1470025,38.5057391 C26.1491637,17.6245652 42.8353831,0.69773913 63.4159902,0.700695652 C83.9958769,0.703652174 100.677774,17.6341739 100.674892,38.516087 C100.672731,59.398 83.9857915,76.324087 63.4059048,76.3211304" id="Fill-22" fill="#1A1918"></path>
                    <path d="M32.8516023,56.6506522 L33.5064299,56.1184783 C31.5808476,52.4982174 29.8843468,47.0641304 29.7899767,46.9503043 C29.7460334,47.1040435 30.5240465,52.1523043 32.8516023,56.6506522" id="Fill-23" fill="#1A1918"></path>
                    <path d="M63.926021,4.45695652 L68.9895894,34.6918261 L63.7012616,37.8774783 L63.5182845,4.46952174 C63.5182845,4.06817391 63.2416576,4.07186957 63.2013162,4.47026087 L60.1994824,36.1597391 L57.9778228,34.8359565 L62.7438733,4.46434783 C44.2891149,4.5826087 29.7164977,19.7865217 29.7143366,38.5752174 C29.7128958,44.5096957 31.5333023,50.733913 34.1511723,55.5966522 L57.4022372,35.7524783 L59.6311006,37.0629565 L33.5150745,56.3261739 C32.8883418,56.774087 33.0763616,56.9980435 33.7700899,56.6026087 L62.9232485,39.3276522 L62.9225282,45.5481739 L34.7764643,56.5634348 C40.6634299,66.4441304 51.1161797,72.7348696 63.3086532,72.7363478 C75.4845579,72.7378261 86.1073179,66.4315652 92.0022078,56.5752609 L63.8936037,45.5681304 L63.8928834,39.3461304 L91.9301695,55.9381304 C92.5662672,56.3054783 92.7586094,56.1051739 92.1578104,55.6653913 L67.1857517,37.0777391 L69.4124539,35.7672609 L92.6548743,55.6306522 C95.3159672,50.7398261 97.0794635,44.4963913 97.0794635,38.5116522 C97.082345,19.9668696 82.0494034,4.964 63.926021,4.45695652" id="Fill-24" fill="#FFFFFF"></path>
                    <path d="M99.0756433,31.9289565 C97.6651344,23.8073913 93.6064995,17.8071304 93.6064995,17.8071304 C87.1670005,8.00921739 76.1941346,1.61573913 63.481545,1.61352174 C43.3065132,1.61130435 26.9963335,18.3910435 26.9934519,39.0918696 C26.9927316,43.9664348 28.2051353,48.6244348 29.8548111,52.8973478 C30.6126535,54.859 33.8277205,60.5177826 33.9739582,60.6382609 C33.9588301,60.4586522 31.6889049,55.9322174 30.4952312,52.921 C29.4722881,50.3392174 28.1993722,45.1933913 28.2000926,39.224913 C28.2022537,19.1434783 44.0715594,2.86486957 63.6429106,2.86782609 C73.8701807,2.86930435 83.4786422,7.99221739 89.3756932,14.6340435 C90.6313199,16.0487391 91.7176567,17.3326087 92.690173,18.637913 C92.690173,18.637913 95.2540143,21.0999565 99.0756433,31.9289565" id="Fill-25" fill="#FFFFFF"></path>
                    <path d="M97.9359983,38.4163043 C97.9352779,44.6316522 96.03707,51.073913 93.2383841,56.1273478 C93.3954275,56.5442174 93.2477491,56.7585652 92.7744578,56.8827391 C86.6756997,66.9622609 75.7856777,73.5597391 63.3886156,73.5582609 C51.7573201,73.5567826 42.45286,67.1470435 39.5115383,63.8335217 C37.1241908,61.1453043 35.3549314,59.1341304 33.9876454,56.8516957 L33.1873005,57.1687826 C38.4201588,67.4353043 49.3980675,74.8968261 63.4001417,74.8990435 C83.2733332,74.9012609 99.139037,58.4134783 99.1419185,38.5123913 C99.1419185,38.5123913 99.7578455,32.1159565 94.3441712,23.0135652 C94.3441712,23.0135652 98.118255,30.0604348 97.9359983,38.4163043" id="Fill-26" fill="#FFFFFF"></path>
                    <path d="M61.0869936,37.9506522 L56.1278806,42.1053043 C56.1278806,42.1053043 55.0818852,42.9922609 56.5831623,42.1984348 L62.5882707,38.8376087 L61.0869936,37.9506522" id="Fill-27" fill="#1A1918"></path>
                    <path d="M61.5876594,36.924 L63.0435524,14.2378696 C63.0435524,14.2378696 63.1797047,11.4838696 63.3165774,14.2844348 C63.4505685,17.0369565 63.0435524,37.904087 63.0435524,37.904087 L61.5876594,36.924" id="Fill-28" fill="#1A1918"></path>
                    <path d="M64.2264205,38.8376087 L65.8184657,37.904087 L84.6535861,50.8344348 C84.6535861,50.8344348 86.064095,51.8145217 84.4713293,50.9748696 L64.2264205,38.8376087" id="Fill-29" fill="#1A1918"></path>
                </g>
            </g>
        </g>
    </g>
</svg>