<?xml version="1.0" encoding="UTF-8" standalone="no"?>
<svg width="196px" height="86px" viewBox="0 0 196 86" version="1.1" xmlns="http://www.w3.org/2000/svg" xmlns:xlink="http://www.w3.org/1999/xlink">
    <!-- Generator: Sketch 43.2 (39069) - http://www.bohemiancoding.com/sketch -->
    <title>mini-service</title>
    <desc>Created with Sketch.</desc>
    <defs></defs>
    <g id="Page-1" stroke="none" stroke-width="1" fill="none" fill-rule="evenodd">
        <g id="desktop5" transform="translate(-1319.000000, -1613.000000)" fill="#FFFFFF">
            <g id="brands" transform="translate(0.000000, 1590.000000)">
                <g id="mini-service" transform="translate(1319.000000, 23.000000)">
                    <path d="M98,79.6104337 C118.307354,79.6104337 134.770095,63.2086408 134.770095,42.9764687 C134.770095,22.7442966 118.307354,6.34250368 98,6.34250368 C77.692646,6.34250368 61.2299047,22.7442966 61.2299047,42.9764687 C61.2299047,63.2086408 77.692646,79.6104337 98,79.6104337 Z M196,19.9067262 L189.744523,26.1515393 L137.489942,26.1515393 C138.449385,28.4023983 139.2093,30.7554916 139.774249,33.1829887 L182.701197,33.1829887 L176.44572,39.4278018 L140.745663,39.4278018 C140.838016,40.576234 140.898444,41.7337537 140.898444,42.9054726 C140.898444,44.1033181 140.836306,45.2863964 140.739392,46.4592512 L169.402394,46.4592512 L163.146347,52.7040643 L139.756576,52.7040643 C139.187067,55.1326974 138.419741,57.4852227 137.455737,59.7355137 L156.103591,59.7355137 L149.847545,65.9803268 L134.131607,65.9803268 C126.481147,77.9008487 113.088851,85.8109453 97.8335369,85.8109453 C82.5787931,85.8109453 69.1864973,77.9008487 61.5360371,65.9803268 L46.1524554,65.9803268 L39.8964085,59.7355137 L58.2119065,59.7355137 C57.2479029,57.4852227 56.4805766,55.1326974 55.9104976,52.7040643 L32.8536526,52.7040643 L26.5976057,46.4592512 L54.9276814,46.4592512 C54.8313381,45.2863964 54.7691994,44.1033181 54.7691994,42.9054726 C54.7691994,41.7337537 54.8296278,40.576234 54.9219806,39.4278018 L19.5542797,39.4278018 L13.2988028,33.1829887 L55.8928251,33.1829887 C56.4577734,30.7554916 57.2182588,28.4023983 58.1771317,26.1515393 L6.25547683,26.1515393 L0,19.9067262 L61.4864403,19.9067262 C69.1289193,7.94360674 82.5462986,0 97.8335369,0 C113.121345,0 126.538725,7.94360674 134.180634,19.9067262 L196,19.9067262 Z" id="Fill-1"></path>
                    <polygon id="Fill-3" points="79.0003081 49.3107553 73.9646434 34.1293532 68.2587065 34.1293532 68.2587065 53.6318408 72.4252016 53.6318408 72.4252016 39.170333 76.8187616 53.6318408 81.1364416 53.6318408 85.5455225 39.170333 85.5455225 53.6318408 89.7114428 53.6318408 89.7114428 34.1293532 83.9911347 34.1293532"></polygon>
                    <polygon id="Fill-5" points="114.995702 48.3288826 107.055013 34.1293532 102.38806 34.1293532 102.38806 53.5167449 106.308044 53.5167449 106.308044 39.9280215 114.244658 53.6318408 118.965174 53.5167449 118.965174 34.1293532 115.045772 34.1293532"></polygon>
                    <polygon id="Fill-7" points="94.5870647 53.6318408 98.4875622 53.6318408 98.4875622 34.1293532 94.5870647 34.1293532"></polygon>
                    <polygon id="Fill-9" points="123.840796 53.6318408 127.741294 53.6318408 127.741294 34.1293532 123.840796 34.1293532"></polygon>
                </g>
            </g>
        </g>
    </g>
</svg>